<svg xmlns="http://www.w3.org/2000/svg" viewBox="0 0 700 450" width="700" height="450">
  <defs>
    <linearGradient id="bgGrad" x1="0%" y1="0%" x2="100%" y2="100%">
      <stop offset="0%" style="stop-color:#0a0e17"/>
      <stop offset="100%" style="stop-color:#0d1520"/>
    </linearGradient>
    <!-- Isometric electric module face -->
    <linearGradient id="elecFace" x1="0%" y1="0%" x2="0%" y2="100%">
      <stop offset="0%" style="stop-color:#003355"/>
      <stop offset="100%" style="stop-color:#001a2a"/>
    </linearGradient>
    <linearGradient id="elecTop" x1="0%" y1="0%" x2="100%" y2="100%">
      <stop offset="0%" style="stop-color:#004466"/>
      <stop offset="100%" style="stop-color:#002233"/>
    </linearGradient>
    <linearGradient id="elecSide" x1="0%" y1="0%" x2="100%" y2="0%">
      <stop offset="0%" style="stop-color:#001122"/>
      <stop offset="100%" style="stop-color:#002233"/>
    </linearGradient>
    <!-- Photonic module -->
    <linearGradient id="photFace" x1="0%" y1="0%" x2="0%" y2="100%">
      <stop offset="0%" style="stop-color:#332200"/>
      <stop offset="100%" style="stop-color:#1a1100"/>
    </linearGradient>
    <linearGradient id="photTop" x1="0%" y1="0%" x2="100%" y2="100%">
      <stop offset="0%" style="stop-color:#443300"/>
      <stop offset="100%" style="stop-color:#221a00"/>
    </linearGradient>
    <linearGradient id="photSide" x1="0%" y1="0%" x2="100%" y2="0%">
      <stop offset="0%" style="stop-color:#1a1100"/>
      <stop offset="100%" style="stop-color:#221a00"/>
    </linearGradient>
    <!-- Buffer module -->
    <linearGradient id="bufFace" x1="0%" y1="0%" x2="0%" y2="100%">
      <stop offset="0%" style="stop-color:#003322"/>
      <stop offset="100%" style="stop-color:#001a11"/>
    </linearGradient>
    <linearGradient id="bufTop" x1="0%" y1="0%" x2="100%" y2="100%">
      <stop offset="0%" style="stop-color:#004433"/>
      <stop offset="100%" style="stop-color:#002211"/>
    </linearGradient>
    <!-- Chassis -->
    <linearGradient id="chassisFace" x1="0%" y1="0%" x2="0%" y2="100%">
      <stop offset="0%" style="stop-color:#1a1f2e"/>
      <stop offset="100%" style="stop-color:#0d1018"/>
    </linearGradient>
    <linearGradient id="chassisTop" x1="0%" y1="0%" x2="100%" y2="100%">
      <stop offset="0%" style="stop-color:#222840"/>
      <stop offset="100%" style="stop-color:#151820"/>
    </linearGradient>
    <linearGradient id="chassisSide" x1="0%" y1="0%" x2="100%" y2="0%">
      <stop offset="0%" style="stop-color:#0d1018"/>
      <stop offset="100%" style="stop-color:#151820"/>
    </linearGradient>
    <filter id="glow">
      <feGaussianBlur stdDeviation="3" result="coloredBlur"/>
      <feMerge><feMergeNode in="coloredBlur"/><feMergeNode in="SourceGraphic"/></feMerge>
    </filter>
    <filter id="softGlow">
      <feGaussianBlur stdDeviation="5" result="coloredBlur"/>
      <feMerge><feMergeNode in="coloredBlur"/><feMergeNode in="SourceGraphic"/></feMerge>
    </filter>
  </defs>

  <!-- Background -->
  <rect width="700" height="450" fill="url(#bgGrad)"/>

  <!-- Grid floor (isometric) -->
  <g opacity="0.12" stroke="#334466" stroke-width="0.5">
    <!-- Horizontal lines going right-down -->
    <line x1="50" y1="380" x2="650" y2="380"/>
    <line x1="50" y1="370" x2="650" y2="370"/>
    <line x1="50" y1="360" x2="650" y2="360"/>
    <line x1="50" y1="350" x2="650" y2="350"/>
    <line x1="50" y1="340" x2="650" y2="340"/>
    <!-- Diagonal lines (perspective) -->
    <line x1="100" y1="340" x2="50" y2="380"/>
    <line x1="200" y1="340" x2="100" y2="390"/>
    <line x1="300" y1="340" x2="200" y2="390"/>
    <line x1="400" y1="340" x2="300" y2="390"/>
    <line x1="500" y1="340" x2="400" y2="390"/>
    <line x1="600" y1="340" x2="500" y2="390"/>
    <line x1="650" y1="350" x2="600" y2="390"/>
  </g>

  <!-- Title -->
  <text x="350" y="25" text-anchor="middle" fill="#ffffff" font-family="Segoe UI, Helvetica Neue, Arial, sans-serif" font-size="14" font-weight="700" letter-spacing="2">HYBRID PHOTONIC COMPUTER — 3D CONCEPT</text>
  <text x="350" y="42" text-anchor="middle" fill="#666666" font-family="Segoe UI, Helvetica Neue, Arial, sans-serif" font-size="9">Isometric view · Conceptual render</text>

  <!-- ============================================================ -->
  <!-- MAIN CHASSIS (isometric box) -->
  <!-- Front face -->
  <polygon points="80,330 620,330 620,390 80,390" fill="url(#chassisFace)" stroke="#334466" stroke-width="1"/>
  <!-- Top face -->
  <polygon points="80,260 140,220 660,220 620,260" fill="url(#chassisTop)" stroke="#334466" stroke-width="1"/>
  <!-- Right side face -->
  <polygon points="620,260 660,220 660,350 620,390" fill="url(#chassisSide)" stroke="#334466" stroke-width="1"/>

  <!-- Chassis front panel details -->
  <!-- I/O ports strip -->
  <rect x="90" y="355" width="180" height="25" rx="2" fill="#111520" stroke="#223344" stroke-width="0.5"/>
  <text x="180" y="367" text-anchor="middle" fill="#445566" font-family="Segoe UI, Helvetica Neue, Arial, sans-serif" font-size="7">I/O · USB · OPTICAL PORTS</text>
  <!-- Port dots -->
  <circle cx="105" cy="371" r="4" fill="#222233" stroke="#00d4ff" stroke-width="0.5"/>
  <circle cx="120" cy="371" r="4" fill="#222233" stroke="#00d4ff" stroke-width="0.5"/>
  <circle cx="135" cy="371" r="3" fill="#ffb800" opacity="0.6"/>
  <circle cx="148" cy="371" r="3" fill="#ffb800" opacity="0.4"/>
  <circle cx="161" cy="371" r="3" fill="#00ff88" opacity="0.5"/>
  <circle cx="174" cy="371" r="2" fill="#888888" opacity="0.4"/>
  <circle cx="184" cy="371" r="2" fill="#888888" opacity="0.4"/>
  <circle cx="194" cy="371" r="2" fill="#888888" opacity="0.4"/>
  <circle cx="204" cy="371" r="2" fill="#888888" opacity="0.4"/>
  <circle cx="214" cy="371" r="2" fill="#888888" opacity="0.4"/>
  <circle cx="224" cy="371" r="2" fill="#888888" stroke="#ff4057" stroke-width="0.3" opacity="0.4"/>
  <circle cx="234" cy="371" r="2" fill="#888888" stroke="#ff4057" stroke-width="0.3" opacity="0.4"/>
  <circle cx="244" cy="371" r="2" fill="#888888" opacity="0.4"/>
  <circle cx="254" cy="371" r="2" fill="#888888" opacity="0.4"/>

  <!-- Cooling fans at bottom front -->
  <rect x="285" y="352" width="30" height="30" rx="3" fill="#111111" stroke="#333333" stroke-width="0.5"/>
  <circle cx="300" cy="367" r="12" fill="none" stroke="#334455" stroke-width="0.5"/>
  <circle cx="300" cy="367" r="6" fill="none" stroke="#445566" stroke-width="0.5"/>
  <line x1="300" y1="355" x2="300" y2="379" stroke="#334455" stroke-width="0.5"/>
  <line x1="288" y1="367" x2="312" y2="367" stroke="#334455" stroke-width="0.5"/>
  <line x1="291" y1="358" x2="309" y2="376" stroke="#334455" stroke-width="0.3"/>
  <line x1="309" y1="358" x2="291" y2="376" stroke="#334455" stroke-width="0.3"/>

  <rect x="325" y="352" width="30" height="30" rx="3" fill="#111111" stroke="#333333" stroke-width="0.5"/>
  <circle cx="340" cy="367" r="12" fill="none" stroke="#334455" stroke-width="0.5"/>
  <circle cx="340" cy="367" r="6" fill="none" stroke="#445566" stroke-width="0.5"/>
  <line x1="340" y1="355" x2="340" y2="379" stroke="#334455" stroke-width="0.5"/>
  <line x1="328" y1="367" x2="352" y2="367" stroke="#334455" stroke-width="0.5"/>
  <line x1="331" y1="358" x2="349" y2="376" stroke="#334455" stroke-width="0.3"/>
  <line x1="349" y1="358" x2="331" y2="376" stroke="#334455" stroke-width="0.3"/>

  <!-- Power button -->
  <circle cx="590" cy="358" r="10" fill="#111111" stroke="#00ff88" stroke-width="1"/>
  <circle cx="590" cy="358" r="6" fill="#00ff88" fill-opacity="0.2" filter="url(#glow)"/>
  <text x="590" y="362" text-anchor="middle" fill="#00ff88" font-family="Consolas, monospace" font-size="7" filter="url(#glow)">⏻</text>

  <!-- Status LEDs -->
  <circle cx="565" cy="348" r="3" fill="#00d4ff" opacity="0.8" filter="url(#glow)"/>
  <circle cx="575" cy="348" r="3" fill="#ffb800" opacity="0.8" filter="url(#glow)"/>
  <circle cx="565" cy="358" r="3" fill="#00ff88" opacity="0.6"/>
  <text x="550" y="375" text-anchor="middle" fill="#445566" font-family="Segoe UI, Helvetica Neue, Arial, sans-serif" font-size="6">STATUS</text>


  <!-- ============================================================ -->
  <!-- ELECTRIC MODULE (left, on top face of chassis) -->
  <!-- Front face -->
  <polygon points="155,265 285,265 285,325 155,325" fill="url(#elecFace)" stroke="#00d4ff" stroke-width="1.2"/>
  <!-- Top face -->
  <polygon points="155,230 195,210 325,210 285,230" fill="url(#elecTop)" stroke="#00d4ff" stroke-width="1.2"/>
  <!-- Right side -->
  <polygon points="285,230 325,210 325,290 285,325" fill="url(#elecSide)" stroke="#00d4ff" stroke-width="1"/>

  <!-- Electric module label -->
  <text x="220" y="248" text-anchor="middle" fill="#00d4ff" font-family="Segoe UI, Helvetica Neue, Arial, sans-serif" font-size="8" font-weight="700" filter="url(#glow)">BASE-4 ELECTRIC</text>

  <!-- CPU chip on front -->
  <rect x="165" y="268" width="45" height="35" rx="2" fill="#001122" stroke="#00d4ff" stroke-width="0.8"/>
  <rect x="170" y="273" width="35" height="25" rx="1" fill="#002244"/>
  <text x="187" y="283" text-anchor="middle" fill="#00d4ff" font-family="Consolas, monospace" font-size="6" font-weight="700">CPU</text>
  <text x="187" y="293" text-anchor="middle" fill="#446677" font-family="Consolas, monospace" font-size="5">BASE-4</text>
  <!-- CPU pins -->
  <line x1="165" y1="272" x2="162" y2="270" stroke="#00d4ff" stroke-width="0.4" opacity="0.5"/>
  <line x1="165" y1="278" x2="162" y2="276" stroke="#00d4ff" stroke-width="0.4" opacity="0.5"/>
  <line x1="165" y1="284" x2="162" y2="282" stroke="#00d4ff" stroke-width="0.4" opacity="0.5"/>
  <line x1="165" y1="290" x2="162" y2="288" stroke="#00d4ff" stroke-width="0.4" opacity="0.5"/>
  <line x1="165" y1="296" x2="162" y2="294" stroke="#00d4ff" stroke-width="0.4" opacity="0.5"/>
  <line x1="165" y1="302" x2="162" y2="300" stroke="#00d4ff" stroke-width="0.4" opacity="0.5"/>

  <!-- RAM sticks -->
  <rect x="220" y="268" width="12" height="40" rx="1" fill="#001a33" stroke="#00d4ff" stroke-width="0.6"/>
  <text x="226" y="295" text-anchor="middle" fill="#00d4ff" font-family="Consolas, monospace" font-size="5" transform="rotate(90,226,295)">RAM</text>
  <rect x="236" y="268" width="12" height="40" rx="1" fill="#001a33" stroke="#00d4ff" stroke-width="0.6"/>

  <!-- Storage chips -->
  <rect x="258" y="278" width="22" height="14" rx="1" fill="#002244" stroke="#00d4ff" stroke-width="0.5"/>
  <text x="269" y="288" text-anchor="middle" fill="#447799" font-family="Consolas, monospace" font-size="5">SSD</text>
  <rect x="258" y="296" width="22" height="14" rx="1" fill="#002244" stroke="#00d4ff" stroke-width="0.5"/>
  <text x="269" y="306" text-anchor="middle" fill="#447799" font-family="Consolas, monospace" font-size="5">STRG</text>

  <!-- Voltage indicator dots on top face -->
  <circle cx="175" cy="220" r="3" fill="#001122" stroke="#00d4ff" stroke-width="0.8"/>
  <circle cx="185" cy="216" r="3" fill="#002244" stroke="#00d4ff" stroke-width="0.8"/>
  <circle cx="195" cy="220" r="3" fill="#004488" stroke="#00d4ff" stroke-width="1"/>
  <circle cx="205" cy="216" r="3" fill="#0066aa" stroke="#00d4ff" stroke-width="1.2" filter="url(#glow)"/>
  <text x="210" y="223" fill="#446688" font-family="Consolas, monospace" font-size="5">0V·1.1V·2.2V·3.3V</text>


  <!-- ============================================================ -->
  <!-- BUFFER MODULE (center) -->
  <!-- Front face -->
  <polygon points="310,255 430,255 430,325 310,325" fill="url(#bufFace)" stroke="#00ff88" stroke-width="1.2"/>
  <!-- Top face -->
  <polygon points="310,215 355,195 475,195 430,215" fill="url(#bufTop)" stroke="#00ff88" stroke-width="1.2"/>
  <!-- Right side -->
  <polygon points="430,215 475,195 475,270 430,325" fill="#001a11" stroke="#00ff88" stroke-width="1"/>

  <!-- Buffer label -->
  <text x="370" y="235" text-anchor="middle" fill="#00ff88" font-family="Segoe UI, Helvetica Neue, Arial, sans-serif" font-size="8" font-weight="700" filter="url(#glow)">ASYNC BUFFER</text>
  <text x="370" y="245" text-anchor="middle" fill="#33aa66" font-family="Segoe UI, Helvetica Neue, Arial, sans-serif" font-size="6">LiNbO₃ Crystal</text>

  <!-- P0 ring -->
  <rect x="320" y="260" width="100" height="16" rx="2" fill="#ff405715" stroke="#ff4057" stroke-width="0.8" stroke-dasharray="3,2"/>
  <text x="330" y="271" fill="#ff4057" font-family="Consolas, monospace" font-size="7" font-weight="700">P0 CRITICAL</text>
  <!-- P1 ring -->
  <rect x="320" y="280" width="100" height="14" rx="2" fill="#00d4ff10" stroke="#00d4ff" stroke-width="0.6" stroke-dasharray="3,2"/>
  <text x="330" y="290" fill="#00d4ff" font-family="Consolas, monospace" font-size="6">P1 NORMAL</text>
  <!-- P2 ring -->
  <rect x="320" y="297" width="100" height="14" rx="2" fill="#88888810" stroke="#888888" stroke-width="0.5" stroke-dasharray="3,2"/>
  <text x="330" y="307" fill="#888888" font-family="Consolas, monospace" font-size="6">P2 BACKGROUND</text>

  <!-- Crystal structure on top face -->
  <polygon points="345,207 365,199 385,207 365,215" fill="none" stroke="#00ff88" stroke-width="0.5" stroke-opacity="0.4"/>
  <polygon points="365,199 385,207 400,200 380,192" fill="none" stroke="#00ff88" stroke-width="0.5" stroke-opacity="0.3"/>
  <text x="370" y="203" text-anchor="middle" fill="#226644" font-family="Consolas, monospace" font-size="5">ELECTRO-OPTIC</text>


  <!-- ============================================================ -->
  <!-- PHOTONIC MODULE (right) -->
  <!-- Front face -->
  <polygon points="460,245 590,245 590,325 460,325" fill="url(#photFace)" stroke="#ffb800" stroke-width="1.2"/>
  <!-- Top face -->
  <polygon points="460,200 505,178 630,178 590,200" fill="url(#photTop)" stroke="#ffb800" stroke-width="1.2"/>
  <!-- Right side -->
  <polygon points="590,200 630,178 630,265 590,325" fill="url(#photSide)" stroke="#ffb800" stroke-width="1"/>

  <!-- Photonic label -->
  <text x="525" y="220" text-anchor="middle" fill="#ffb800" font-family="Segoe UI, Helvetica Neue, Arial, sans-serif" font-size="8" font-weight="700" filter="url(#glow)">BASE-256 PHOTONIC</text>
  <text x="525" y="230" text-anchor="middle" fill="#aa7700" font-family="Segoe UI, Helvetica Neue, Arial, sans-serif" font-size="6">InP Processor + Si₃N₄ Waveguides</text>

  <!-- Laser source -->
  <rect x="470" y="252" width="40" height="28" rx="2" fill="#221100" stroke="#ffb800" stroke-width="0.8"/>
  <text x="490" y="263" text-anchor="middle" fill="#ffb800" font-family="Consolas, monospace" font-size="5" font-weight="700">LASER</text>
  <text x="490" y="272" text-anchor="middle" fill="#886633" font-family="Consolas, monospace" font-size="5">III-V</text>
  <!-- Laser beam indicator -->
  <line x1="510" y1="266" x2="530" y2="266" stroke="#ffb800" stroke-width="1.5" stroke-opacity="0.6" filter="url(#glow)"/>
  <line x1="510" y1="263" x2="528" y2="261" stroke="#ffcc44" stroke-width="0.8" stroke-opacity="0.4"/>
  <line x1="510" y1="269" x2="528" y2="271" stroke="#ffcc44" stroke-width="0.8" stroke-opacity="0.4"/>

  <!-- Optical modulator -->
  <rect x="533" y="252" width="42" height="28" rx="2" fill="#221100" stroke="#ffb800" stroke-width="0.8"/>
  <text x="554" y="263" text-anchor="middle" fill="#ffb800" font-family="Consolas, monospace" font-size="5" font-weight="700">MOD</text>
  <text x="554" y="272" text-anchor="middle" fill="#886633" font-family="Consolas, monospace" font-size="5">256lvl</text>

  <!-- Waveguide channels -->
  <line x1="470" y1="293" x2="575" y2="293" stroke="#ffb800" stroke-width="0.8" stroke-opacity="0.5" stroke-dasharray="2,3"/>
  <line x1="470" y1="299" x2="575" y2="299" stroke="#ff9900" stroke-width="0.8" stroke-opacity="0.4" stroke-dasharray="2,3"/>
  <line x1="470" y1="305" x2="575" y2="305" stroke="#ffcc44" stroke-width="0.6" stroke-opacity="0.3" stroke-dasharray="2,3"/>
  <line x1="470" y1="311" x2="575" y2="311" stroke="#ffb800" stroke-width="0.6" stroke-opacity="0.25" stroke-dasharray="2,3"/>
  <text x="523" y="320" text-anchor="middle" fill="#664400" font-family="Consolas, monospace" font-size="6">Si₃N₄ WAVEGUIDES (WDM)</text>

  <!-- Photon particles (glow dots) -->
  <circle cx="520" cy="265" r="2" fill="#ffb800" filter="url(#softGlow)" opacity="0.9"/>
  <circle cx="540" cy="261" r="1.5" fill="#ffcc44" filter="url(#glow)" opacity="0.7"/>
  <circle cx="535" cy="270" r="1.5" fill="#ffaa00" filter="url(#glow)" opacity="0.6"/>

  <!-- On top face: WDM wavelength indicator -->
  <line x1="520" y1="189" x2="610" y2="189" stroke="#ffb800" stroke-width="0.6" stroke-opacity="0.4" stroke-dasharray="2,3"/>
  <line x1="516" y1="193" x2="606" y2="193" stroke="#ff9900" stroke-width="0.6" stroke-opacity="0.3" stroke-dasharray="2,3"/>
  <line x1="512" y1="197" x2="602" y2="197" stroke="#ffcc00" stroke-width="0.5" stroke-opacity="0.25" stroke-dasharray="2,3"/>
  <text x="555" y="184" text-anchor="middle" fill="#664400" font-family="Consolas, monospace" font-size="5">80+ WDM CHANNELS</text>


  <!-- ============================================================ -->
  <!-- DATA FLOW ARROWS between modules -->
  <!-- Electric → Buffer -->
  <path d="M 295 290 Q 300 285 305 290" stroke="#00d4ff" stroke-width="1.5" fill="none" stroke-opacity="0.7" filter="url(#glow)"/>
  <line x1="295" y1="290" x2="308" y2="285" stroke="#00d4ff" stroke-width="1.5" stroke-opacity="0.8" stroke-dasharray="3,2"/>
  <circle cx="302" cy="287" r="3" fill="#00d4ff" filter="url(#glow)" opacity="0.8"/>
  <text x="302" y="278" text-anchor="middle" fill="#00d4ff" font-family="Segoe UI, Helvetica Neue, Arial, sans-serif" font-size="7">write</text>

  <!-- Buffer → Electric (interrupt) -->
  <line x1="308" y1="296" x2="295" y2="300" stroke="#00ff88" stroke-width="1.2" stroke-opacity="0.7" stroke-dasharray="2,3"/>
  <circle cx="301" cy="298" r="2" fill="#00ff88" filter="url(#glow)" opacity="0.7"/>

  <!-- Buffer → Photonic (optical) -->
  <line x1="433" y1="285" x2="458" y2="278" stroke="#00ff88" stroke-width="1.5" stroke-opacity="0.8" stroke-dasharray="3,2" filter="url(#glow)"/>
  <circle cx="445" cy="282" r="3" fill="#00ff88" filter="url(#glow)" opacity="0.8"/>
  <text x="445" y="273" text-anchor="middle" fill="#00ff88" font-family="Segoe UI, Helvetica Neue, Arial, sans-serif" font-size="7">optical</text>

  <!-- Photonic → Buffer (result) -->
  <line x1="458" y1="294" x2="433" y2="298" stroke="#ffb800" stroke-width="1.2" stroke-opacity="0.7" stroke-dasharray="2,3"/>
  <circle cx="445" cy="296" r="2" fill="#ffb800" filter="url(#glow)" opacity="0.7"/>

  <!-- Floating data particles -->
  <circle cx="302" cy="305" r="1.5" fill="#00d4ff" filter="url(#glow)" opacity="0.5"/>
  <circle cx="445" cy="310" r="2" fill="#ffb800" filter="url(#softGlow)" opacity="0.6"/>

  <!-- ============================================================ -->
  <!-- ANNOTATION LABELS (outside the box) -->
  <!-- Electric annotation -->
  <line x1="155" y1="290" x2="100" y2="280" stroke="#334455" stroke-width="0.5"/>
  <text x="98" y="272" text-anchor="end" fill="#00d4ff" font-family="Segoe UI, Helvetica Neue, Arial, sans-serif" font-size="8" font-weight="600">ELECTRIC</text>
  <text x="98" y="282" text-anchor="end" fill="#446677" font-family="Segoe UI, Helvetica Neue, Arial, sans-serif" font-size="7">Si · Base-4</text>
  <text x="98" y="292" text-anchor="end" fill="#446677" font-family="Segoe UI, Helvetica Neue, Arial, sans-serif" font-size="7">2 bits/cell</text>
  <text x="98" y="302" text-anchor="end" fill="#446677" font-family="Segoe UI, Helvetica Neue, Arial, sans-serif" font-size="7">~5 GHz</text>

  <!-- Buffer annotation -->
  <line x1="430" y1="270" x2="450" y2="180" stroke="#334433" stroke-width="0.5"/>
  <text x="455" y="170" fill="#00ff88" font-family="Segoe UI, Helvetica Neue, Arial, sans-serif" font-size="8" font-weight="600">ASYNC BUFFER</text>
  <text x="455" y="180" fill="#336644" font-family="Segoe UI, Helvetica Neue, Arial, sans-serif" font-size="7">LiNbO₃ · Non-blocking</text>
  <text x="455" y="190" fill="#336644" font-family="Segoe UI, Helvetica Neue, Arial, sans-serif" font-size="7">3 priority queues</text>

  <!-- Photonic annotation -->
  <line x1="590" y1="270" x2="655" y2="260" stroke="#443322" stroke-width="0.5"/>
  <text x="657" y="252" fill="#ffb800" font-family="Segoe UI, Helvetica Neue, Arial, sans-serif" font-size="8" font-weight="600">PHOTONIC</text>
  <text x="657" y="262" fill="#886644" font-family="Segoe UI, Helvetica Neue, Arial, sans-serif" font-size="7">InP + Si₃N₄ · THz</text>
  <text x="657" y="272" fill="#886644" font-family="Segoe UI, Helvetica Neue, Arial, sans-serif" font-size="7">8 bits/signal</text>
  <text x="657" y="282" fill="#886644" font-family="Segoe UI, Helvetica Neue, Arial, sans-serif" font-size="7">No heat · No EMI</text>

  <!-- Footer -->
  <text x="350" y="435" text-anchor="middle" fill="#333344" font-family="Segoe UI, Helvetica Neue, Arial, sans-serif" font-size="8">Conceptual architecture by Alp Eren Celebi · Hybrid Photonic Computer · 4⁴ = 256</text>
</svg>
